# Blender v2.82 (sub 7) OBJ File: 'I body armor.blend'
# www.blender.org
mtllib I_B_башня.mtl
o Cube.024
v -1.173806 0.561211 -0.482791
v 1.183758 0.360371 -0.482791
v -0.513202 0.444826 -0.702270
v 0.705463 0.360371 -0.906146
v 0.096131 0.360371 -0.951454
v -0.394742 0.361071 -0.826862
v -1.174337 0.963633 -0.482791
v 1.183758 0.926429 -0.482791
v 1.183758 1.044947 -0.352712
v -0.433242 1.171309 -0.574492
v -0.446287 1.052781 -0.702270
v 0.705463 1.082285 -0.906146
v 0.705463 1.200716 -0.776995
v 0.096131 1.070849 -0.951454
v 0.096131 1.189157 -0.822955
v -0.201233 1.061888 -0.826862
v -0.168555 1.180233 -0.698667
v -1.174394 1.006943 -0.435628
v -1.101203 1.089726 -0.376906
v -1.173806 0.561211 0.482791
v 1.183758 0.360371 0.482791
v -1.173806 0.561211 0.000000
v 1.183758 0.360371 0.000000
v 1.183758 1.044947 0.000000
v -0.513202 0.444826 0.702270
v -0.433242 1.171309 0.000000
v -0.513202 0.444826 0.000000
v 0.705463 1.200716 0.000000
v 0.705463 0.360371 0.906146
v 0.705463 0.360371 0.000000
v 0.096131 0.360371 0.951454
v 0.096131 0.360371 0.000000
v 0.096131 1.189157 0.000000
v -0.394742 0.361071 0.826862
v -0.394742 0.361071 0.000000
v -0.168555 1.180233 0.000000
v -1.174337 0.963633 0.482791
v 1.183758 0.926429 0.482791
v 1.183758 1.044947 0.352712
v -0.433242 1.171309 0.574492
v -0.446287 1.052781 0.702270
v 0.705463 1.082285 0.906146
v 0.705463 1.200716 0.776995
v 0.096131 1.070849 0.951454
v 0.096131 1.189157 0.822955
v -0.201233 1.061888 0.826862
v -0.168555 1.180233 0.698667
v -1.101203 1.089726 0.000000
v -1.174394 1.006943 0.000000
v -1.174394 1.006943 0.435628
v -1.101203 1.089726 0.376906
vt 0.375000 0.250000
vt 0.568635 0.250000
vt 0.584212 0.320104
vt 0.375000 0.320104
vt 0.375000 0.500000
vt 0.581718 0.500000
vt 0.625000 0.533679
vt 0.625000 0.625000
vt 0.375000 0.625000
vt 0.589474 0.250000
vt 0.625000 0.256610
vt 0.625000 0.316859
vt 0.324296 0.500000
vt 0.324296 0.625000
vt 0.772598 0.519380
vt 0.804896 0.522744
vt 0.804896 0.625000
vt 0.772598 0.625000
vt 0.125000 0.500000
vt 0.195104 0.500000
vt 0.195104 0.625000
vt 0.125000 0.625000
vt 0.588882 0.352402
vt 0.375000 0.352402
vt 0.868069 0.532011
vt 0.868069 0.625000
vt 0.675704 0.517816
vt 0.675704 0.625000
vt 0.375000 0.449296
vt 0.589767 0.449296
vt 0.259700 0.500000
vt 0.259700 0.625000
vt 0.740300 0.516882
vt 0.740300 0.625000
vt 0.227402 0.500000
vt 0.227402 0.625000
vt 0.375000 0.384700
vt 0.589313 0.384700
vt 0.625000 0.455709
vt 0.625000 0.500000
vt 0.625000 0.385707
vt 0.625000 0.449296
vt 0.625000 0.352402
vt 0.625000 0.378663
vt 0.625000 0.320104
vt 0.625000 0.346380
vt 0.375000 0.125000
vt 0.589474 0.125000
vt 0.589474 0.237789
vt 0.625000 0.125000
vt 0.625000 0.216972
vt 0.375000 0.250000
vt 0.375000 0.320104
vt 0.584212 0.320104
vt 0.568635 0.250000
vt 0.375000 0.500000
vt 0.625000 0.533679
vt 0.581718 0.500000
vt 0.625000 0.523591
vt 0.589474 0.250000
vt 0.625000 0.316859
vt 0.625000 0.256610
vt 0.324296 0.500000
vt 0.772598 0.519380
vt 0.804896 0.522744
vt 0.125000 0.500000
vt 0.195104 0.500000
vt 0.375000 0.352402
vt 0.588882 0.352402
vt 0.868069 0.532011
vt 0.675704 0.517816
vt 0.375000 0.449296
vt 0.589767 0.449296
vt 0.259700 0.500000
vt 0.625000 0.394399
vt 0.740300 0.516882
vt 0.625000 0.329803
vt 0.227402 0.500000
vt 0.375000 0.384700
vt 0.589313 0.384700
vt 0.625000 0.265208
vt 0.625000 0.455709
vt 0.625000 0.500000
vt 0.625000 0.385707
vt 0.625000 0.449296
vt 0.625000 0.352402
vt 0.625000 0.378663
vt 0.625000 0.320104
vt 0.625000 0.346380
vt 0.589474 0.237789
vt 0.625000 0.216972
vt 0.625000 0.138862
vt 0.553948 0.196052
vn -0.3010 0.0198 -0.9534
vn 1.0000 0.0000 0.0000
vn -0.2793 0.7128 -0.6434
vn 0.0000 -1.0000 0.0000
vn -0.0337 0.9994 0.0000
vn -0.1735 -0.9848 0.0000
vn -0.5467 0.1088 -0.8302
vn -0.1212 0.9926 0.0000
vn 0.3097 0.9508 0.0000
vn 0.6628 0.0000 -0.7488
vn -0.0014 -1.0000 0.0000
vn 0.0742 0.0000 -0.9972
vn -0.5773 -0.8165 0.0000
vn -0.0190 0.9998 0.0000
vn -0.3016 0.0413 -0.9525
vn 0.6424 0.5657 -0.5170
vn 0.0368 0.7359 -0.6761
vn -0.3000 0.7201 -0.6257
vn -0.3237 0.7226 -0.6108
vn -1.0000 -0.0013 0.0000
vn -0.7492 0.6624 0.0000
vn -0.3010 0.0198 0.9534
vn 0.0000 0.0000 -1.0000
vn -0.2793 0.7128 0.6434
vn -0.5467 0.1088 0.8302
vn 0.6628 0.0000 0.7488
vn 0.0742 0.0000 0.9972
vn -0.3016 0.0413 0.9525
vn 0.6424 0.5657 0.5170
vn 0.0368 0.7359 0.6761
vn -0.3000 0.7201 0.6257
vn -0.3237 0.7226 0.6108
usemtl None
s off
f 1/1/1 7/2/1 11/3/1 3/4/1
f 2/5/2 8/6/2 9/7/2 24/8/2 23/9/2
f 18/10/3 19/11/3 10/12/3 11/3/3 7/2/3
f 4/13/4 2/5/4 23/9/4 30/14/4
f 17/15/5 10/16/5 26/17/5 36/18/5
f 1/19/6 3/20/6 27/21/6 22/22/6
f 3/4/7 11/3/7 16/23/7 6/24/7
f 10/16/8 19/25/8 48/26/8 26/17/8
f 9/7/9 13/27/9 28/28/9 24/8/9
f 4/29/10 12/30/10 8/6/10 2/5/10
f 5/31/4 4/13/4 30/14/4 32/32/4
f 15/33/5 17/15/5 36/18/5 33/34/5
f 6/35/11 5/31/11 32/32/11 35/36/11
f 5/37/12 14/38/12 12/30/12 4/29/12
f 3/20/13 6/35/13 35/36/13 27/21/13
f 13/27/14 15/33/14 33/34/14 28/28/14
f 6/24/15 16/23/15 14/38/15 5/37/15
f 13/39/16 9/40/16 8/6/16 12/30/16
f 15/41/17 13/42/17 12/30/17 14/38/17
f 17/43/18 15/44/18 14/38/18 16/23/18
f 10/45/19 17/46/19 16/23/19 11/3/19
f 22/47/20 49/48/20 18/49/20 7/2/20 1/1/20
f 18/49/21 49/48/21 48/50/21 19/51/21
f 20/52/22 25/53/22 41/54/22 37/55/22
f 21/56/2 23/9/2 24/8/2 39/57/2 38/58/2
f 28/59/23 24/8/23 23/9/23 30/14/23
f 50/60/24 37/55/24 41/54/24 40/61/24 51/62/24
f 29/63/4 30/14/4 23/9/4 21/56/4
f 47/64/5 36/18/5 26/17/5 40/65/5
f 20/66/6 22/22/6 27/21/6 25/67/6
f 25/53/25 34/68/25 46/69/25 41/54/25
f 40/65/8 26/17/8 48/26/8 51/70/8
f 39/57/9 24/8/9 28/28/9 43/71/9
f 29/72/26 21/56/26 38/58/26 42/73/26
f 31/74/4 32/32/4 30/14/4 29/63/4
f 33/75/23 28/59/23 30/14/23 32/32/23
f 45/76/5 33/34/5 36/18/5 47/64/5
f 36/77/23 33/75/23 32/32/23 35/36/23
f 34/78/11 35/36/11 32/32/11 31/74/11
f 31/79/27 29/72/27 42/73/27 44/80/27
f 25/67/13 27/21/13 35/36/13 34/78/13
f 26/81/23 36/77/23 35/36/23 27/21/23
f 43/71/14 28/28/14 33/34/14 45/76/14
f 34/68/28 31/79/28 44/80/28 46/69/28
f 43/82/29 42/73/29 38/58/29 39/83/29
f 45/84/30 44/80/30 42/73/30 43/85/30
f 47/86/31 46/69/31 44/80/31 45/87/31
f 40/88/32 41/54/32 46/69/32 47/89/32
f 22/47/20 20/52/20 37/55/20 50/90/20 49/48/20
f 50/90/21 51/91/21 48/50/21 49/48/21
f 48/92/23 26/81/23 27/21/23 22/22/23 49/93/23
o Cube.025_Cube.028
v 1.532962 0.373069 -0.586082
v 1.534892 1.054659 -0.586082
v 1.370326 0.595142 -0.586082
v 1.533927 0.595142 -0.586082
v 1.369361 0.373069 -0.586082
v 1.371291 1.054659 -0.586082
v 0.875090 0.595142 -0.880479
v 0.838452 0.595142 -0.816724
v 0.875990 1.054659 -0.880761
v 0.839352 1.054659 -0.817006
v 0.394840 0.595656 -0.992271
v 0.358203 0.595656 -0.928516
v 0.290206 1.055173 -0.992553
v 0.253568 1.055173 -0.928798
v 0.742188 1.224849 -0.880638
v 0.705550 1.224849 -0.816883
v 0.396064 1.239312 -0.992429
v 0.359427 1.239312 -0.928674
v 1.533927 0.713864 0.000000
v 1.370326 0.713864 0.000000
v 1.532962 0.373069 0.586082
v 1.534892 1.054659 0.586082
v 1.370326 0.595142 0.586082
v 1.533927 0.595142 0.586082
v 1.369361 0.373069 0.586082
v 1.371291 1.054659 0.586082
v 1.532962 0.373069 0.000000
v 1.534892 1.054659 0.000000
v 1.369361 0.373069 0.000000
v 1.371291 1.054659 0.000000
v 0.875090 0.595142 0.880479
v 0.838452 0.595142 0.816724
v 0.875990 1.054659 0.880761
v 0.839352 1.054659 0.817006
v 0.394840 0.595656 0.992271
v 0.358203 0.595656 0.928516
v 0.290206 1.055173 0.992553
v 0.253568 1.055173 0.928798
v 0.742188 1.224849 0.880638
v 0.705550 1.224849 0.816883
v 0.396064 1.239312 0.992429
v 0.359427 1.239312 0.928674
vt 0.500000 0.125000
vt 0.500000 0.250000
vt 0.625000 0.250000
vt 0.625000 0.125000
vt 0.625000 0.500000
vt 0.625000 0.500000
vt 0.500000 0.500000
vt 0.500000 0.500000
vt 0.375000 0.500000
vt 0.375000 0.625000
vt 0.500000 0.625000
vt 0.375000 0.250000
vt 0.625000 0.625000
vt 0.875000 0.625000
vt 0.875000 0.500000
vt 0.125000 0.500000
vt 0.125000 0.625000
vt 0.625000 0.500000
vt 0.500000 0.500000
vt 0.375000 0.125000
vt 0.875000 0.500000
vt 0.500000 0.250000
vt 0.625000 0.250000
vt 0.500000 0.250000
vt 0.625000 0.250000
vt 0.625000 0.250000
vt 0.625000 0.250000
vt 0.875000 0.500000
vt 0.875000 0.500000
vt 0.625000 0.500000
vt 0.625000 0.500000
vt 0.625000 0.250000
vt 0.500000 0.250000
vt 0.625000 0.500000
vt 0.500000 0.500000
vt 0.500000 0.500000
vt 0.625000 0.500000
vt 0.375000 0.500000
vt 0.375000 0.375000
vt 0.375000 0.250000
vt 0.875000 0.500000
vt 0.125000 0.500000
vt 0.500000 0.500000
vt 0.625000 0.500000
vt 0.875000 0.500000
vt 0.625000 0.250000
vt 0.500000 0.250000
vt 0.500000 0.250000
vt 0.625000 0.250000
vt 0.625000 0.250000
vt 0.625000 0.250000
vt 0.875000 0.500000
vt 0.625000 0.500000
vt 0.625000 0.500000
vt 0.875000 0.500000
vn 1.0000 -0.0024 0.0002
vn -0.3980 0.0011 0.9174
vn -1.0000 0.0034 -0.0003
vn 0.0000 0.0000 -1.0000
vn 0.0000 1.0000 0.0000
vn 0.0000 -1.0000 0.0000
vn -1.0000 0.0024 -0.0002
vn -0.2052 -0.0226 0.9785
vn 1.0000 -0.0034 0.0003
vn 0.4081 -0.0011 -0.9129
vn -0.8506 -0.1940 -0.4888
vn -0.0009 -1.0000 -0.0005
vn 0.2052 0.0226 -0.9785
vn 0.2335 0.0191 -0.9722
vn 0.0352 0.9992 0.0202
vn -0.2335 -0.0191 0.9722
vn -0.7759 0.4463 -0.4459
vn 0.7165 0.5630 0.4118
vn 1.0000 -0.0024 -0.0002
vn -0.3980 0.0011 -0.9174
vn -1.0000 0.0034 0.0003
vn 0.0000 0.0000 1.0000
vn -1.0000 0.0024 0.0002
vn -0.2052 -0.0226 -0.9785
vn 1.0000 -0.0034 -0.0003
vn 0.4081 -0.0011 0.9129
vn -0.8506 -0.1940 0.4888
vn -0.0009 -1.0000 0.0005
vn 0.2052 0.0226 0.9785
vn 0.2335 0.0191 0.9722
vn 0.0352 0.9992 -0.0202
vn -0.2335 -0.0191 -0.9722
vn -0.7759 0.4463 0.4459
vn 0.7165 0.5630 -0.4118
usemtl None
s off
f 70/94/33 55/95/33 53/96/33 79/97/33
f 57/98/34 61/99/34 59/100/34 54/101/34
f 56/102/35 80/103/35 71/104/35 54/101/35
f 52/105/36 56/102/36 54/101/36 55/95/36
f 57/98/37 81/106/37 79/107/37 53/108/37
f 52/109/38 78/110/38 80/103/38 56/102/38
f 54/101/39 71/104/39 81/106/39 57/98/39
f 61/99/40 65/111/40 63/112/40 59/100/40
f 78/113/41 52/105/41 55/95/41 70/94/41
f 53/108/37 60/114/37 61/99/37 57/98/37
f 55/95/42 58/115/42 60/116/42 53/96/42
f 54/101/38 59/100/38 58/115/38 55/95/38
f 62/117/43 63/112/43 65/111/43 64/118/43
f 59/100/44 63/112/44 62/117/44 58/115/44
f 58/115/45 62/117/45 64/118/45 60/116/45
f 64/118/46 68/119/46 66/120/46 60/116/46
f 66/121/47 68/122/47 69/123/47 67/124/47
f 61/99/48 67/124/48 69/123/48 65/111/48
f 65/111/49 69/123/49 68/119/49 64/118/49
f 60/114/50 66/121/50 67/124/50 61/99/50
f 70/94/51 79/97/51 73/125/51 75/126/51
f 77/127/52 74/128/52 83/129/52 85/130/52
f 76/131/53 74/128/53 71/104/53 80/103/53
f 79/97/36 70/132/36 71/104/36 81/106/36
f 72/133/54 75/126/54 74/128/54 76/131/54
f 70/132/36 78/110/36 80/103/36 71/104/36
f 77/127/37 73/134/37 79/107/37 81/106/37
f 72/135/38 76/131/38 80/103/38 78/110/38
f 74/128/55 77/127/55 81/106/55 71/104/55
f 85/130/56 83/129/56 87/136/56 89/137/56
f 78/113/57 70/94/57 75/126/57 72/133/57
f 73/134/37 77/127/37 85/130/37 84/138/37
f 75/126/58 73/125/58 84/139/58 82/140/58
f 74/128/38 75/126/38 82/140/38 83/129/38
f 86/141/59 88/142/59 89/137/59 87/136/59
f 83/129/60 82/140/60 86/141/60 87/136/60
f 82/140/61 84/139/61 88/142/61 86/141/61
f 88/142/62 84/139/62 90/143/62 92/144/62
f 90/145/63 91/146/63 93/147/63 92/148/63
f 85/130/64 89/137/64 93/147/64 91/146/64
f 89/137/65 88/142/65 92/144/65 93/147/65
f 84/138/66 85/130/66 91/146/66 90/145/66
o Cube.026_Cube.029
v 0.270999 1.197292 -0.812471
v -0.270999 1.112823 -0.812471
v -0.264949 1.112823 -0.886514
v -0.264949 1.197292 -0.886514
v 0.270999 1.112823 -0.812471
v -0.270999 1.197292 -0.812471
v 0.264949 1.112823 -1.000406
v 0.264949 1.197292 -1.000406
v 0.264949 0.653278 -1.000406
v -0.264949 0.653278 -0.886514
v 0.270999 0.653278 -0.812471
v -0.270999 0.653278 -0.812471
v -0.902323 1.097231 -0.634554
v -0.908373 1.097231 -0.560512
v -0.902323 0.637686 -0.634554
v -0.908373 0.637686 -0.560512
v 0.270999 1.197292 0.812471
v -0.270999 1.112823 0.812471
v -0.264949 1.112823 0.886514
v -0.264949 1.197292 0.886514
v 0.270999 1.112823 0.812471
v -0.270999 1.197292 0.812471
v 0.264949 1.112823 1.000406
v 0.264949 1.197292 1.000406
v -0.270999 1.112823 0.000000
v -0.270999 1.197292 0.000000
v 0.270999 1.112823 0.000000
v 0.270999 1.197292 0.000000
v 0.264949 0.653278 1.000406
v -0.264949 0.653278 0.886514
v 0.270999 0.653278 0.812471
v -0.270999 0.653278 0.812471
v -0.902323 1.097231 0.634554
v -0.908373 1.097231 0.560512
v -0.902323 0.637686 0.634554
v -0.908373 0.637686 0.560512
vt 0.375000 0.237730
vt 0.625000 0.237730
vt 0.625000 0.250000
vt 0.375000 0.250000
vt 0.625000 0.500000
vt 0.375000 0.500000
vt 0.625000 0.512270
vt 0.375000 0.512270
vt 0.375000 0.250000
vt 0.375000 0.250000
vt 0.375000 0.250000
vt 0.875000 0.500000
vt 0.875000 0.512270
vt 0.875000 0.625000
vt 0.625000 0.625000
vt 0.125000 0.512270
vt 0.375000 0.625000
vt 0.125000 0.625000
vt 0.125000 0.500000
vt 0.375000 0.500000
vt 0.375000 0.512270
vt 0.125000 0.512270
vt 0.375000 0.125000
vt 0.625000 0.125000
vt 0.375000 0.237730
vt 0.375000 0.237730
vt 0.125000 0.512270
vt 0.125000 0.512270
vt 0.125000 0.500000
vt 0.375000 0.237730
vt 0.375000 0.250000
vt 0.625000 0.250000
vt 0.625000 0.237730
vt 0.375000 0.500000
vt 0.625000 0.500000
vt 0.375000 0.512270
vt 0.625000 0.512270
vt 0.375000 0.250000
vt 0.375000 0.250000
vt 0.375000 0.250000
vt 0.875000 0.512270
vt 0.875000 0.500000
vt 0.125000 0.512270
vt 0.125000 0.500000
vt 0.125000 0.512270
vt 0.375000 0.512270
vt 0.375000 0.500000
vt 0.375000 0.237730
vt 0.375000 0.237730
vt 0.125000 0.512270
vt 0.125000 0.512270
vt 0.125000 0.500000
vn -0.9967 0.0000 -0.0814
vn -0.2101 0.0000 -0.9777
vn 0.9995 0.0000 -0.0322
vn -0.3676 0.0000 -0.9300
vn 0.0000 1.0000 0.0000
vn 0.0000 -1.0000 0.0000
vn 1.0000 0.0000 0.0000
vn -1.0000 0.0000 0.0000
vn 0.0000 0.0000 1.0000
vn -0.0253 0.9997 -0.0021
vn 0.3676 0.0000 0.9300
vn 0.0253 -0.9997 0.0021
vn -0.9967 0.0000 0.0814
vn -0.2101 0.0000 0.9777
vn 0.9995 0.0000 0.0322
vn -0.3676 0.0000 0.9300
vn 0.0000 0.0000 -1.0000
vn -0.0253 0.9997 0.0021
vn 0.3676 0.0000 -0.9300
vn 0.0253 -0.9997 -0.0021
usemtl None
s off
f 95/149/67 99/150/67 97/151/67 96/152/67
f 96/152/68 97/151/68 101/153/68 100/154/68
f 100/154/69 101/153/69 94/155/69 98/156/69
f 96/152/70 103/157/70 108/158/70 106/159/70
f 101/153/71 97/160/71 99/161/71 94/155/71
f 94/155/71 99/161/71 119/162/71 121/163/71
f 95/164/72 98/156/72 120/165/72 118/166/72
f 98/156/73 94/155/73 121/163/73 120/165/73
f 103/167/72 102/168/72 104/169/72 105/170/72
f 118/171/74 119/172/74 99/150/74 95/149/74
f 100/154/69 98/156/69 104/169/69 102/168/69
f 98/156/75 95/164/75 105/170/75 104/169/75
f 96/152/68 100/154/68 102/168/68 103/157/68
f 107/173/67 106/159/67 108/158/67 109/174/67
f 95/149/76 96/152/76 106/159/76 107/173/76
f 105/170/77 95/164/77 107/175/77 109/176/77
f 103/167/78 105/170/78 109/176/78 108/177/78
f 111/178/79 112/179/79 113/180/79 115/181/79
f 112/179/80 116/182/80 117/183/80 113/180/80
f 116/182/81 114/184/81 110/185/81 117/183/81
f 112/179/82 126/186/82 128/187/82 123/188/82
f 117/183/71 110/185/71 115/189/71 113/190/71
f 119/172/83 121/163/83 120/165/83 118/166/83
f 110/185/71 121/163/71 119/162/71 115/189/71
f 111/191/72 118/166/72 120/165/72 114/184/72
f 114/184/73 120/165/73 121/163/73 110/185/73
f 123/192/72 125/193/72 124/194/72 122/195/72
f 118/171/74 111/178/74 115/181/74 119/172/74
f 116/182/81 122/195/81 124/194/81 114/184/81
f 114/184/83 124/194/83 125/193/83 111/191/83
f 112/179/80 123/188/80 122/195/80 116/182/80
f 127/196/79 129/197/79 128/187/79 126/186/79
f 111/178/84 127/196/84 126/186/84 112/179/84
f 125/193/85 129/198/85 127/199/85 111/191/85
f 123/192/86 128/200/86 129/198/86 125/193/86
