# Blender v2.82 (sub 7) OBJ File: 'I body armor.blend'
# www.blender.org
mtllib I_C_пушка.mtl
o Cylinder.005_Cylinder
v 4.060814 0.839088 0.066169
v 1.840659 0.839087 0.089990
v 4.060814 0.895067 0.042982
v 1.840659 0.911911 0.059826
v 4.060814 0.918254 -0.012998
v 1.840659 0.942075 -0.012998
v 4.060814 0.895067 -0.068977
v 1.840659 0.911911 -0.085821
v 4.060814 0.839088 -0.092164
v 1.840659 0.839087 -0.115986
v 4.060814 0.783108 -0.068977
v 1.840659 0.766264 -0.085821
v 4.060814 0.759921 -0.012998
v 1.840659 0.736099 -0.012998
v 4.060814 0.783108 0.042982
v 1.840659 0.766264 0.059826
v 4.107366 0.839088 0.100371
v 4.107366 0.919251 0.067166
v 4.107366 0.952456 -0.012998
v 4.107366 0.919251 -0.093161
v 4.107366 0.839087 -0.126366
v 4.107366 0.758924 -0.093161
v 4.107366 0.725719 -0.012998
v 4.107366 0.758924 0.067166
v 4.697536 0.839088 0.100371
v 4.697536 0.919251 0.067166
v 4.697536 0.952456 -0.012998
v 4.697536 0.919251 -0.093161
v 4.697536 0.839088 -0.126366
v 4.697536 0.758924 -0.093161
v 4.697536 0.725720 -0.012998
v 4.697536 0.758924 0.067166
v 4.722313 0.839088 0.051556
v 4.722313 0.884734 0.032648
v 4.722313 0.903641 -0.012998
v 4.722313 0.884734 -0.058644
v 4.722313 0.839088 -0.077551
v 4.722313 0.793442 -0.058644
v 4.722313 0.774534 -0.012998
v 4.722313 0.793442 0.032648
v 4.763046 0.839088 0.051556
v 4.763046 0.884734 0.032648
v 4.763046 0.903641 -0.012998
v 4.763046 0.884734 -0.058644
v 4.763046 0.839088 -0.077551
v 4.763046 0.793442 -0.058644
v 4.763046 0.774534 -0.012998
v 4.763046 0.793442 0.032648
v 4.820471 0.839088 0.097233
v 4.820471 0.917033 0.064947
v 4.820471 0.949318 -0.012998
v 4.820471 0.917033 -0.090943
v 4.820471 0.839088 -0.123228
v 4.820471 0.761143 -0.090943
v 4.820471 0.728857 -0.012998
v 4.820471 0.761143 0.064947
v 5.071498 0.839088 0.062317
v 5.071498 0.892343 0.040258
v 5.071498 0.914402 -0.012998
v 5.071498 0.892343 -0.066253
v 5.071498 0.839088 -0.088312
v 5.071498 0.785832 -0.066253
v 5.071498 0.763773 -0.012998
v 5.071498 0.785832 0.040257
v 5.071498 0.839088 0.097233
v 5.071498 0.917033 0.064947
v 5.071498 0.949318 -0.012998
v 5.071498 0.917033 -0.090943
v 5.071498 0.839088 -0.123228
v 5.071498 0.761143 -0.090943
v 5.071498 0.728857 -0.012998
v 5.071498 0.761143 0.064947
v 4.948479 0.839087 0.062317
v 4.948479 0.892343 0.040258
v 4.948479 0.914402 -0.012998
v 4.948479 0.892343 -0.066253
v 4.948479 0.839087 -0.088312
v 4.948479 0.785832 -0.066253
v 4.948479 0.763773 -0.012998
v 4.948479 0.785832 0.040257
vt 1.000000 0.500000
vt 0.875000 0.500000
vt 0.875000 1.000000
vt 1.000000 1.000000
vt 0.750000 0.500000
vt 0.750000 1.000000
vt 0.625000 0.500000
vt 0.625000 1.000000
vt 0.500000 0.500000
vt 0.500000 1.000000
vt 0.375000 0.500000
vt 0.375000 1.000000
vt 0.250000 0.500000
vt 0.250000 1.000000
vt 0.419706 0.419706
vt 0.490000 0.250000
vt 0.419706 0.080294
vt 0.250000 0.010000
vt 0.080294 0.080294
vt 0.010000 0.250000
vt 0.080294 0.419706
vt 0.250000 0.490000
vt 0.125000 0.500000
vt 0.125000 1.000000
vt 0.000000 0.500000
vt 0.000000 1.000000
vt 0.375000 0.500000
vt 0.250000 0.500000
vt 0.875000 0.500000
vt 0.875000 0.500000
vt 0.750000 0.500000
vt 0.750000 0.500000
vt 0.625000 0.500000
vt 0.500000 0.500000
vt 0.125000 0.500000
vt 0.000000 0.500000
vt 1.000000 0.500000
vt 0.125000 0.500000
vt 0.125000 0.500000
vt 0.000000 0.500000
vt 0.000000 0.500000
vt 0.250000 0.500000
vt 0.500000 0.500000
vt 0.375000 0.500000
vt 0.625000 0.500000
vt 1.000000 0.500000
vt 0.750000 0.500000
vt 0.750000 0.500000
vt 0.625000 0.500000
vt 0.625000 0.500000
vt 0.375000 0.500000
vt 0.250000 0.500000
vt 0.500000 0.500000
vt 0.875000 0.500000
vt 1.000000 0.500000
vt 0.250000 0.500000
vt 0.250000 0.500000
vt 0.125000 0.500000
vt 0.125000 0.500000
vt 1.000000 0.500000
vt 0.875000 0.500000
vt 0.000000 0.500000
vt 0.375000 0.500000
vt 0.500000 0.500000
vt 0.625000 0.500000
vt 0.625000 0.500000
vt 0.500000 0.500000
vt 0.500000 0.500000
vt 0.375000 0.500000
vt 0.750000 0.500000
vt 1.000000 0.500000
vt 0.875000 0.500000
vt 0.000000 0.500000
vt 0.913978 0.250000
vt 0.913978 0.250000
vt 0.865950 0.134050
vt 0.865950 0.134050
vt 0.875000 0.500000
vt 0.750000 0.500000
vt 0.250000 0.500000
vt 0.125000 0.500000
vt 0.375000 0.500000
vt 1.000000 0.500000
vt 0.000000 0.500000
vt 0.865950 0.365950
vt 0.919706 0.419706
vt 0.750000 0.490000
vt 0.750000 0.413978
vt 0.990000 0.250000
vt 0.919706 0.080294
vt 0.750000 0.086022
vt 0.750000 0.010000
vt 0.634050 0.134050
vt 0.580294 0.080294
vt 0.586022 0.250000
vt 0.510000 0.250000
vt 0.634050 0.365950
vt 0.580294 0.419706
vt 0.750000 0.413978
vt 0.634050 0.365950
vt 0.586022 0.250000
vt 0.634050 0.134050
vt 0.750000 0.086022
vt 0.865950 0.365950
vn 0.0099 0.3827 0.9238
vn 0.0099 0.9238 0.3827
vn 0.0099 0.9238 -0.3827
vn 0.0099 0.3827 -0.9238
vn 0.0099 -0.3827 -0.9238
vn 0.0099 -0.9238 -0.3827
vn -1.0000 0.0000 0.0000
vn 0.0099 -0.9238 0.3827
vn 0.0099 -0.3827 0.9238
vn -0.5616 -0.7644 -0.3166
vn -0.0000 0.9239 0.3827
vn -0.5616 0.3166 -0.7644
vn -0.5616 -0.7644 0.3166
vn -0.5616 0.7644 0.3166
vn -0.5616 -0.3166 -0.7644
vn -0.5616 -0.3166 0.7644
vn -0.5616 0.3166 0.7644
vn -0.5616 0.7644 -0.3166
vn 0.8764 -0.1843 0.4448
vn 0.0000 -0.9239 0.3827
vn 0.0000 -0.3827 -0.9239
vn -0.0000 0.9239 -0.3827
vn -0.0000 0.3827 0.9239
vn 0.0000 -0.3827 0.9239
vn 0.0000 -0.9239 -0.3827
vn -0.0000 0.3827 -0.9239
vn 0.8764 -0.4448 -0.1843
vn 0.8764 0.1843 -0.4448
vn 0.8764 0.4449 0.1843
vn 0.8764 -0.4449 0.1843
vn 0.8764 -0.1843 -0.4448
vn 0.8764 0.4449 -0.1843
vn 0.8764 0.1843 0.4448
vn -0.5922 -0.7445 0.3084
vn -0.5922 -0.3084 -0.7445
vn -0.5922 0.7445 -0.3084
vn -0.5922 0.3084 0.7445
vn -0.5922 -0.3084 0.7445
vn -0.5922 -0.7445 -0.3084
vn -0.5922 0.3084 -0.7445
vn -0.5922 0.7445 0.3084
vn 1.0000 -0.0000 0.0000
usemtl None
s off
f 1/1/1 3/2/1 4/3/1 2/4/1
f 3/2/2 5/5/2 6/6/2 4/3/2
f 5/5/3 7/7/3 8/8/3 6/6/3
f 7/7/4 9/9/4 10/10/4 8/8/4
f 9/9/5 11/11/5 12/12/5 10/10/5
f 11/11/6 13/13/6 14/14/6 12/12/6
f 4/15/7 6/16/7 8/17/7 10/18/7 12/19/7 14/20/7 16/21/7 2/22/7
f 13/13/8 15/23/8 16/24/8 14/14/8
f 15/23/9 1/25/9 2/26/9 16/24/9
f 11/11/10 22/27/10 23/28/10 13/13/10
f 18/29/11 26/30/11 27/31/11 19/32/11
f 7/7/12 20/33/12 21/34/12 9/9/12
f 13/13/13 23/28/13 24/35/13 15/23/13
f 3/2/14 18/29/14 19/32/14 5/5/14
f 9/9/15 21/34/15 22/27/15 11/11/15
f 15/23/16 24/35/16 17/36/16 1/25/16
f 1/1/17 17/37/17 18/29/17 3/2/17
f 5/5/18 19/32/18 20/33/18 7/7/18
f 32/38/19 40/39/19 33/40/19 25/41/19
f 23/28/20 31/42/20 32/38/20 24/35/20
f 21/34/21 29/43/21 30/44/21 22/27/21
f 19/32/22 27/31/22 28/45/22 20/33/22
f 17/37/23 25/46/23 26/30/23 18/29/23
f 24/35/24 32/38/24 25/41/24 17/36/24
f 22/27/25 30/44/25 31/42/25 23/28/25
f 20/33/26 28/45/26 29/43/26 21/34/26
f 35/47/22 43/48/22 44/49/22 36/50/22
f 30/44/27 38/51/27 39/52/27 31/42/27
f 28/45/28 36/50/28 37/53/28 29/43/28
f 26/30/29 34/54/29 35/47/29 27/31/29
f 31/42/30 39/52/30 40/39/30 32/38/30
f 29/43/31 37/53/31 38/51/31 30/44/31
f 27/31/32 35/47/32 36/50/32 28/45/32
f 25/46/33 33/55/33 34/54/33 26/30/33
f 47/56/34 55/57/34 56/58/34 48/59/34
f 33/55/23 41/60/23 42/61/23 34/54/23
f 40/39/24 48/59/24 41/62/24 33/40/24
f 38/51/25 46/63/25 47/56/25 39/52/25
f 36/50/26 44/49/26 45/64/26 37/53/26
f 34/54/11 42/61/11 43/48/11 35/47/11
f 39/52/20 47/56/20 48/59/20 40/39/20
f 37/53/21 45/64/21 46/63/21 38/51/21
f 52/65/26 68/66/26 69/67/26 53/68/26
f 45/64/35 53/68/35 54/69/35 46/63/35
f 43/48/36 51/70/36 52/65/36 44/49/36
f 41/60/37 49/71/37 50/72/37 42/61/37
f 48/59/38 56/58/38 49/73/38 41/62/38
f 46/63/39 54/69/39 55/57/39 47/56/39
f 44/49/40 52/65/40 53/68/40 45/64/40
f 42/61/41 50/72/41 51/70/41 43/48/41
f 59/74/20 75/75/20 76/76/20 60/77/20
f 50/72/11 66/78/11 67/79/11 51/70/11
f 55/57/20 71/80/20 72/81/20 56/58/20
f 53/68/21 69/67/21 70/82/21 54/69/21
f 51/70/22 67/79/22 68/66/22 52/65/22
f 49/71/23 65/83/23 66/78/23 50/72/23
f 56/58/24 72/81/24 65/84/24 49/73/24
f 54/69/25 70/82/25 71/80/25 55/57/25
f 58/85/42 66/86/42 65/87/42 57/88/42
f 59/74/42 67/89/42 66/86/42 58/85/42
f 60/77/42 68/90/42 67/89/42 59/74/42
f 61/91/42 69/92/42 68/90/42 60/77/42
f 62/93/42 70/94/42 69/92/42 61/91/42
f 63/95/42 71/96/42 70/94/42 62/93/42
f 64/97/42 72/98/42 71/96/42 63/95/42
f 57/88/42 65/87/42 72/98/42 64/97/42
f 73/99/42 80/100/42 79/101/42 78/102/42 77/103/42 76/76/42 75/75/42 74/104/42
f 57/88/21 73/99/21 74/104/21 58/85/21
f 64/97/26 80/100/26 73/99/26 57/88/26
f 62/93/11 78/102/11 79/101/11 63/95/11
f 60/77/24 76/76/24 77/103/24 61/91/24
f 58/85/25 74/104/25 75/75/25 59/74/25
f 63/95/22 79/101/22 80/100/22 64/97/22
f 61/91/23 77/103/23 78/102/23 62/93/23
